<svg width="100%" height="100%" viewBox="0 0 32 32" fill="none" xmlns="http://www.w3.org/2000/svg">
<path fill-rule="evenodd" clip-rule="evenodd" d="M0 26C0 28.2092 1.79086 30 4 30H14C16.2091 30 18 28.2092 18 26V15H25.8786L24.4394 16.4393C23.8536 17.0251 23.8536 17.9749 24.4394 18.5607C25.0252 19.1464 25.9748 19.1464 26.5606 18.5607L30.5606 14.5607C31.1464 13.9749 31.1464 13.0251 30.5606 12.4393L26.5606 8.43934C25.9748 7.85356 25.0252 7.85356 24.4394 8.43934C23.8536 9.02512 23.8536 9.97488 24.4394 10.5607L25.8786 12H18V6C18 3.79086 16.2091 2 14 2H4C1.79086 2 0 3.79086 0 6V26ZM14 5H10.5V12H15V6C15 5.44772 14.5523 5 14 5ZM4 5H7.5V12H3V6C3 5.44772 3.44772 5 4 5ZM10.5 15H15V26C15 26.5522 14.5523 27 14 27H10.5V15ZM4 27H7.5V15H3V26C3 26.5522 3.44772 27 4 27Z" fill="currentColor"/>
</svg>
